<!--?xml version="1.0" encoding="utf-8"?-->
<!-- Generator: Adobe Illustrator 18.1.1, SVG Export Plug-In . SVG Version: 6.00 Build 0)  -->

<svg version="1.1" id="_x32_" xmlns="http://www.w3.org/2000/svg" xmlns:xlink="http://www.w3.org/1999/xlink" x="0px" y="0px" viewBox="0 0 512 512" style="width: 256px; height: 256px; opacity: 1;" xml:space="preserve">
<style type="text/css">
	.st0{fill:#4B4B4B;}
</style>
<g>
	<rect y="46.609" class="st0" width="512" height="50.872" style="fill: rgb(75, 75, 75);"></rect>
	<path class="st0" d="M283.598,268.808h148.806v-82.39H283.598V268.808z M358.215,207.822c8.183,0,14.806,6.622,14.806,14.798
		c0,8.184-6.623,14.814-14.806,14.814c-8.176,0-14.798-6.63-14.798-14.814C343.417,214.444,350.04,207.822,358.215,207.822z" style="fill: rgb(75, 75, 75);"></path>
	<polygon class="st0" points="446.195,174.583 446.195,465.391 497.076,465.391 497.076,112.405 446.195,112.405 	" style="fill: rgb(75, 75, 75);"></polygon>
	<polygon class="st0" points="14.923,465.391 65.804,465.391 65.804,174.583 65.804,112.405 14.923,112.405 	" style="fill: rgb(75, 75, 75);"></polygon>
	<rect x="80.728" y="112.405" class="st0" width="351.677" height="62.178" style="fill: rgb(75, 75, 75);"></rect>
	<path class="st0" d="M283.598,364.93h148.806v-82.39H283.598V364.93z M358.215,303.943c8.183,0,14.806,6.622,14.806,14.798
		c0,8.184-6.623,14.814-14.806,14.814c-8.176,0-14.798-6.63-14.798-14.814C343.417,310.566,350.04,303.943,358.215,303.943z" style="fill: rgb(75, 75, 75);"></path>
</g>
</svg>
